<?xml version="1.0" standalone="no"?>
<!DOCTYPE svg PUBLIC "-//W3C//DTD SVG 20010904//EN"
 "http://www.w3.org/TR/2001/REC-SVG-20010904/DTD/svg10.dtd">
<svg version="1.0" xmlns="http://www.w3.org/2000/svg"
 width="64.000000pt" height="64.000000pt" viewBox="0 0 64.000000 64.000000"
 preserveAspectRatio="xMidYMid meet">

<g transform="translate(0.000000,64.000000) scale(0.100000,-0.100000)"
fill="#000000" stroke="none">
<path d="M87 361 c2 -178 2 -180 -20 -184 -12 -2 33 -5 100 -6 67 0 125 -5
128 -11 10 -16 -13 -48 -37 -53 -13 -2 22 -4 77 -5 76 0 92 2 69 9 -35 10 -43
30 -39 92 1 21 -2 40 -6 43 -5 3 -9 16 -9 30 0 13 -5 24 -11 24 -5 0 -8 -4 -4
-9 3 -5 1 -12 -5 -16 -14 -9 -13 -45 2 -45 9 0 9 -3 0 -12 -9 -9 -15 -9 -24 0
-20 20 -33 14 -14 -7 15 -17 15 -19 1 -25 -9 -3 -48 -6 -86 -6 l-69 0 0 174
c0 158 2 175 18 179 9 3 -3 5 -28 6 l-45 1 2 -179z"/>
<path d="M255 533 c29 -7 45 -23 45 -44 0 -30 58 -26 62 4 3 19 9 22 51 21 64
0 101 -28 105 -79 7 -78 -21 -110 -102 -118 -20 -2 -36 -8 -36 -13 1 -13 104
-9 140 6 60 25 90 117 54 169 -32 46 -87 61 -219 60 -66 -1 -111 -4 -100 -6z"/>
<path d="M342 430 c0 -14 2 -19 5 -12 2 6 2 18 0 25 -3 6 -5 1 -5 -13z"/>
<path d="M308 383 c11 -21 17 -44 15 -50 -7 -20 12 -15 32 7 20 22 14 40 -8
22 -10 -9 -16 -4 -26 23 -7 19 -17 35 -22 35 -5 0 -1 -17 9 -37z"/>
<path d="M268 313 c6 -11 18 -25 26 -33 13 -10 16 -10 16 1 0 8 -12 22 -26 33
-26 18 -26 18 -16 -1z"/>
</g>
</svg>
